P1
# Deux-points entre chaque unite de temps
3 5
0 0 0 
0 1 0 
0 0 0
0 1 0 
0 0 0 

